<svg width="24" height="24" viewBox="0 0 24 24" fill="none" xmlns="http://www.w3.org/2000/svg">
<path fill-rule="evenodd" clip-rule="evenodd" d="M4 3.00009H20C20.5523 3.00009 21 3.44781 21 4.00009V20.0001C21 20.5524 20.5523 21.0001 20 21.0001H4C3.44772 21.0001 3 20.5524 3 20.0001V4.00009C3 3.44781 3.44772 3.00009 4 3.00009ZM2 4.00009C2 2.89552 2.89543 2.00009 4 2.00009H20C21.1046 2.00009 22 2.89552 22 4.00009V20.0001C22 21.1047 21.1046 22.0001 20 22.0001H4C2.89543 22.0001 2 21.1047 2 20.0001V4.00009ZM16.6566 12.413C16.6566 14.8034 14.7187 16.7412 12.3283 16.7412C9.93784 16.7412 8 14.8034 8 12.413C8 10.0225 9.93784 8.08469 12.3283 8.08469C14.7187 8.08469 16.6566 10.0225 16.6566 12.413ZM17.9343 5.72275H17.9313C17.3452 5.72439 16.8703 6.19923 16.8687 6.78535L16.8656 6.7884L16.8687 6.79146C16.8703 7.37758 17.3452 7.85242 17.9313 7.85406H17.9343C18.5219 7.85406 18.9984 7.37859 19 6.79145L19 6.7884L19 6.78536C18.9984 6.19821 18.5219 5.72275 17.9343 5.72275ZM12.3283 17.7412C15.271 17.7412 17.6566 15.3557 17.6566 12.413C17.6566 9.47024 15.271 7.08469 12.3283 7.08469C9.38555 7.08469 7 9.47024 7 12.413C7 15.3557 9.38555 17.7412 12.3283 17.7412Z" fill="white"/>
</svg>
